<svg width="188" height="186" viewBox="0 0 188 186" fill="none" xmlns="http://www.w3.org/2000/svg">
	<path d="M20.7466 84.2993L26.2528 84.4511L26.1606 87.7954L23.5553 87.7236L23.3272 96.0014L25.9324 96.0732L25.8398 99.4361L20.3336 99.2843L20.3463 98.8224C20.355 98.0583 19.8463 97.508 18.82 97.1716C17.7942 96.8228 16.3091 96.5846 14.3649 96.4571L10.3779 96.1993L10.6651 85.7781L20.6982 86.0547L20.7466 84.2993ZM14.7671 93.2692C16.1454 93.3565 17.3125 93.4996 18.2686 93.6985C19.2246 93.8975 19.9564 94.1827 20.4639 94.5541L20.5989 89.6577L13.4667 89.4611L13.3644 93.175L14.7671 93.2692Z" fill="black" />
	<path d="M11.1875 81.0657L12.0088 77.5561L19.4059 79.2871L13.2259 72.3547L14.0093 69.0071L26.6078 71.9552L25.7866 75.4648L18.4074 73.738L24.5736 80.6482L23.7861 84.0138L11.1875 81.0657Z" fill="black" />
	<path d="M24.4677 59.8479C25.0049 59.3041 25.6038 58.956 26.2642 58.8037C26.9246 58.6513 27.5759 58.7173 28.2182 59.0017C28.9506 59.3259 29.4775 59.8557 29.7989 60.5909C30.1202 61.3261 30.2403 62.1812 30.1592 63.1559C30.0667 64.1258 29.796 65.1177 29.3471 66.1318C28.9929 66.9318 28.5355 67.7064 27.9748 68.4554C27.4191 69.1932 26.7825 69.8547 26.0652 70.44L24.1742 68.4102C24.6791 68.0004 25.137 67.5293 25.5479 66.9969C25.9524 66.4483 26.2794 65.8923 26.5289 65.3289C26.8581 64.5852 27.0092 63.9244 26.9821 63.3464C26.9437 62.7634 26.7048 62.3746 26.2653 62.18C25.916 62.0254 25.592 62.0571 25.2933 62.2753C24.9946 62.4934 24.7354 62.8504 24.516 63.3462L23.1766 66.3716L20.7258 65.2866L21.9455 62.5316C22.145 62.0809 22.2095 61.6917 22.139 61.364C22.0684 61.0363 21.881 60.8051 21.5768 60.6704C21.1937 60.5008 20.8159 60.5626 20.4435 60.856C20.0598 61.1443 19.7332 61.5927 19.4639 62.2012C19.2444 62.6969 19.0857 63.2533 18.9877 63.8703C18.8785 64.4823 18.8437 65.0936 18.8834 65.7041L15.9141 65.562C15.8644 64.0306 16.1737 62.51 16.8421 61.0001C17.2711 60.031 17.8086 59.1976 18.4544 58.4997C19.094 57.7856 19.7802 57.301 20.513 57.046C21.2508 56.7797 21.9747 56.8036 22.6846 57.1179C23.2367 57.3623 23.6676 57.7283 23.9774 58.2158C24.2809 58.6871 24.4443 59.2311 24.4677 59.8479Z" fill="black" />
	<path d="M35.0482 50.4903L31.9581 55.0055L33.4585 57.2642L31.3497 60.3455L23.8978 48.3243L25.9336 45.3498L39.8475 47.9289L37.6969 51.0712L35.0482 50.4903ZM32.2157 49.8509L27.8593 48.8852L30.3366 52.5966L32.2157 49.8509Z" fill="black" />
	<path d="M31.1787 38.3358L33.7647 35.825L39.0567 41.2756L37.5974 32.1039L40.0641 29.709L49.0772 38.9922L46.4911 41.503L41.212 36.0657L42.6718 45.2113L40.1918 47.6191L31.1787 38.3358ZM35.0673 33.4783C34.1301 34.3882 33.2646 34.8765 32.4706 34.9432C31.6854 35.0013 30.9452 34.6723 30.2499 33.9562L32.0137 32.2437C32.323 32.5445 32.6257 32.6971 32.9219 32.7015C33.2182 32.7059 33.5298 32.5493 33.857 32.2317C34.1841 31.9141 34.3543 31.6028 34.3675 31.298C34.3807 30.9932 34.2415 30.6818 33.9499 30.3638L35.7137 28.6513C36.409 29.3674 36.7116 30.1213 36.6215 30.913C36.5314 31.7047 36.0133 32.5598 35.0673 33.4783Z" fill="black" />
	<path d="M53.8952 20.2168L60.8693 31.1153L57.7866 33.088L55.0667 28.8376L50.863 31.5276L53.5828 35.778L50.5001 37.7506L43.5261 26.8521L46.6088 24.8794L49.229 28.9742L53.4328 26.2842L50.8125 22.1895L53.8952 20.2168Z" fill="black" />
	<path d="M79.2334 21.293L80.8774 26.5503L77.6843 27.5488L76.9064 25.0613L69.0029 27.5329L69.7808 30.0204L66.57 31.0245L64.926 25.7673L65.367 25.6293C66.0925 25.3896 66.4478 24.7297 66.4329 23.6498C66.4297 22.5663 66.1729 21.0843 65.6623 19.204L64.6118 15.3493L74.5617 12.2377L77.5574 21.8171L79.2334 21.293ZM68.8081 18.5495C69.173 19.8814 69.4166 21.0319 69.5388 22.0007C69.661 22.9696 69.6288 23.7543 69.4422 24.3549L74.1173 22.893L71.9877 16.0833L68.4418 17.1922L68.8081 18.5495Z" fill="black" />
	<path d="M90.8648 10.0043L92.2026 22.8739L88.6175 23.2466L87.5798 13.2635L83.8843 13.6476L84.0287 15.7511C84.1585 17.596 84.1607 19.1073 84.0354 20.2849C83.9223 21.4612 83.6108 22.398 83.101 23.0952C82.5899 23.7802 81.8073 24.1775 80.7532 24.2871C80.263 24.338 79.7038 24.3218 79.0757 24.2385L78.9683 21.239C79.1314 21.2593 79.2988 21.2604 79.4704 21.2426C79.9484 21.1929 80.2964 20.9647 80.5143 20.558C80.7322 20.1513 80.8612 19.6051 80.9015 18.9195C80.9404 18.2217 80.9216 17.3254 80.845 16.2308L80.4956 11.0822L90.8648 10.0043Z" fill="black" />
	<path d="M106.811 10.8872L105.66 23.7749L102.07 23.4545L102.36 20.2142L100.371 20.0368L97.9647 23.0881L94.1352 22.7464L97.0864 19.2054C96.2612 18.7483 95.6532 18.1435 95.2626 17.3911C94.8731 16.6264 94.7227 15.7469 94.8115 14.7527C94.9013 13.7463 95.2123 12.8956 95.7444 12.2008C96.2765 11.506 96.9959 11.0011 97.9024 10.6861C98.8089 10.3711 99.8451 10.2656 101.011 10.3697L106.811 10.8872ZM100.828 13.2484C99.3924 13.1202 98.6158 13.7128 98.4986 15.0261C98.4405 15.6766 98.5741 16.1896 98.8994 16.565C99.2381 16.9293 99.7511 17.1421 100.438 17.2034L102.611 17.3973L102.964 13.439L100.828 13.2484Z" fill="black" />
	<path d="M127.52 16.7974L123.175 28.9848L119.78 27.7743L123.151 18.3203L119.651 17.0726L118.874 19.0326C118.195 20.7529 117.545 22.1173 116.924 23.1255C116.314 24.138 115.629 24.8487 114.868 25.2578C114.112 25.6552 113.234 25.676 112.236 25.3201C111.772 25.1546 111.275 24.8987 110.744 24.5525L111.941 21.8002C112.079 21.8889 112.23 21.9621 112.392 22.0201C112.845 22.1815 113.257 22.1257 113.63 21.8528C114.002 21.5799 114.354 21.1429 114.686 20.5417C115.022 19.929 115.392 19.1123 115.795 18.0917L117.701 13.2962L127.52 16.7974Z" fill="black" />
	<path d="M142.178 24.89L132.492 30.8004C131.461 31.438 130.449 31.787 129.456 31.8472C128.474 31.9137 127.563 31.7006 126.724 31.2078C126.107 30.846 125.529 30.3211 124.99 29.633L127.106 27.7455C127.466 28.1288 127.801 28.4109 128.109 28.5918C128.417 28.7727 128.729 28.8627 129.044 28.8617C129.369 28.8671 129.72 28.7802 130.097 28.6012L130.477 18.0219L133.809 19.9775L133.244 26.8907L139.101 23.0841L142.178 24.89Z" fill="black" />
	<path d="M153.091 34.0758L144.593 43.8327L141.875 41.4654L144.765 38.148C143.793 37.7433 142.992 37.2658 142.36 36.7155C140.994 35.5257 140.232 34.29 140.074 33.0082C139.933 31.7253 140.401 30.4659 141.477 29.23L144.087 26.2332L146.805 28.6006L144.462 31.2907C143.37 32.5451 143.436 33.7065 144.663 34.7749C145.332 35.3576 146.005 35.7479 146.683 35.9457L150.373 31.7085L153.091 34.0758Z" fill="black" />
	<path d="M167.16 51.7622L156.691 59.3659L146.383 45.1729L156.852 37.5692L158.97 40.4856L150.849 46.3839L152.837 49.1208L160.958 43.2225L163.076 46.1389L154.955 52.0371L156.921 54.7441L165.042 48.8458L167.16 51.7622Z" fill="black" />
	<path d="M163.808 69.1565L161.218 70.291L157.05 60.7755L168.902 55.5848L172.973 64.8803L170.383 66.0148L167.765 60.0379L165.767 60.9129L168.073 66.1787L165.567 67.2761L163.261 62.0104L161.094 62.9595L163.808 69.1565Z" fill="black" />
	<path d="M173.668 78.1345L172.198 72.4623L162.482 74.9794L161.578 71.4902L174.104 68.2452L176.482 77.4246L173.668 78.1345Z" fill="black" />
	<path d="M164.543 88.3259C164.439 86.9621 164.633 85.7113 165.127 84.5735C165.621 83.448 166.355 82.5328 167.326 81.8279C168.299 81.1353 169.424 80.74 170.702 80.642C171.98 80.544 173.152 80.763 174.219 81.2991C175.287 81.8475 176.151 82.6402 176.812 83.6771C177.473 84.7263 177.856 85.9328 177.961 87.2966C178.065 88.6605 177.87 89.9051 177.376 91.0307C176.882 92.1685 176.149 93.0837 175.176 93.7762C174.205 94.4811 173.08 94.8825 171.802 94.9806C170.524 95.0786 169.351 94.8534 168.283 94.305C167.217 93.7689 166.352 92.9763 165.691 91.9271C165.031 90.8901 164.648 89.6898 164.543 88.3259ZM167.566 88.0941C167.616 88.7453 167.815 89.3232 168.162 89.828C168.51 90.3328 168.972 90.7175 169.549 90.9823C170.137 91.2461 170.794 91.3502 171.519 91.2946C172.244 91.2389 172.871 91.0364 173.401 90.6868C173.942 90.3362 174.346 89.885 174.613 89.3331C174.88 88.7813 174.988 88.1797 174.938 87.5285C174.888 86.8773 174.689 86.2993 174.342 85.7946C173.994 85.2898 173.526 84.9055 172.937 84.6417C172.36 84.377 171.71 84.2724 170.985 84.328C170.26 84.3836 169.627 84.5867 169.085 84.9372C168.556 85.2868 168.158 85.7375 167.891 86.2894C167.624 86.8413 167.516 87.4429 167.566 88.0941Z" fill="black" />
	<path d="M167.732 134.147L166.991 135.338L155.721 128.329L156.462 127.137L167.732 134.147Z" fill="black" />
	<path d="M154.63 151.153L144.622 142.437L145.506 141.422L153.513 148.395L150.203 138.598L150.639 138.098L160.754 139.994L152.791 133.058L153.675 132.043L163.683 140.76L162.923 141.632L151.718 139.515L155.39 150.281L154.63 151.153Z" fill="black" />
	<path d="M149.679 155.627L145.33 158.835C144.201 159.668 143.036 160.174 141.833 160.354C140.639 160.544 139.502 160.409 138.424 159.947C137.353 159.496 136.435 158.752 135.67 157.715C134.905 156.677 134.461 155.575 134.339 154.409C134.224 153.253 134.43 152.127 134.957 151.031C135.492 149.946 136.324 148.987 137.453 148.154L141.801 144.947L149.679 155.627ZM138.234 149.086C137.298 149.776 136.614 150.563 136.183 151.447C135.758 152.341 135.593 153.256 135.687 154.192C135.788 155.138 136.153 156.039 136.784 156.893C137.414 157.748 138.162 158.358 139.029 158.724C139.903 159.1 140.826 159.212 141.798 159.061C142.778 158.919 143.735 158.503 144.671 157.813L147.83 155.484L141.392 146.756L138.234 149.086Z" fill="black" />
	<path d="M117.338 158.883L121.755 161.691C122.057 161.527 122.378 161.376 122.717 161.238L126.019 159.895L124.433 155.996L125.732 155.467L130.734 167.76L126.133 169.632C124.564 170.271 123.182 170.396 121.988 170.009C120.793 169.622 119.929 168.772 119.396 167.461C119.005 166.501 118.92 165.587 119.14 164.72C119.353 163.869 119.851 163.114 120.633 162.454L115.915 159.462L117.338 158.883ZM123.203 162.33C121.985 162.825 121.164 163.473 120.739 164.274C120.314 165.075 120.3 165.961 120.695 166.932C121.1 167.928 121.732 168.558 122.59 168.822C123.453 169.099 124.493 168.989 125.711 168.494L128.977 167.165L126.469 161.001L123.203 162.33Z" fill="black" />
	<path d="M104.563 163.229L104.308 162.042L113.485 160.073L116.269 173.05L107.371 174.959L107.116 173.772L114.642 172.157L113.652 167.542L106.941 168.981L106.691 167.814L113.401 166.374L112.367 161.554L104.563 163.229Z" fill="black" />
	<path d="M97.5078 162.418C98.4924 162.369 99.4471 162.48 100.372 162.751C101.284 163.022 101.999 163.404 102.517 163.897L102.021 165.004C101.517 164.548 100.861 164.188 100.05 163.924C99.2405 163.674 98.4127 163.569 97.5669 163.611C96.3803 163.67 95.5009 163.929 94.9289 164.387C94.3574 164.858 94.0889 165.441 94.1234 166.136C94.1497 166.666 94.3347 167.081 94.6786 167.38C95.0099 167.68 95.4131 167.9 95.8883 168.041C96.3642 168.195 97.0237 168.352 97.8669 168.513C98.8767 168.716 99.684 168.916 100.289 169.114C100.894 169.324 101.423 169.659 101.876 170.117C102.316 170.576 102.557 171.216 102.597 172.037C102.631 172.706 102.484 173.32 102.157 173.881C101.831 174.454 101.311 174.923 100.595 175.287C99.8787 175.652 98.9779 175.861 97.8923 175.915C97.1348 175.952 96.391 175.881 95.6608 175.703C94.9186 175.537 94.2733 175.284 93.7249 174.944L94.1429 173.804C94.7165 174.142 95.3233 174.384 95.9633 174.53C96.6039 174.688 97.2272 174.752 97.8331 174.722C98.9945 174.664 99.8606 174.393 100.431 173.909C100.99 173.439 101.252 172.85 101.217 172.143C101.191 171.613 101.012 171.191 100.68 170.879C100.336 170.58 99.9197 170.353 99.4313 170.2C98.9308 170.061 98.2653 169.91 97.4347 169.749C96.4507 169.557 95.6562 169.356 95.0509 169.146C94.4337 168.949 93.9049 168.621 93.4645 168.161C93.0248 167.715 92.7849 167.088 92.7448 166.28C92.7116 165.611 92.8643 164.989 93.2029 164.416C93.5294 163.856 94.057 163.393 94.7855 163.028C95.5147 162.675 96.4221 162.472 97.5078 162.418Z" fill="black" />
	<path d="M84.6805 161.957C86.3864 162.169 87.6553 162.823 88.4872 163.92C89.3191 165.017 89.6191 166.499 89.3872 168.368L88.451 175.913L87.0587 175.74L87.9879 168.252C88.1777 166.722 87.9744 165.538 87.3779 164.699C86.7814 163.861 85.8309 163.361 84.5264 163.199C83.2094 163.036 82.1592 163.288 81.3759 163.955C80.5927 164.622 80.1061 165.72 79.9162 167.251L78.987 174.739L77.6324 174.571L78.5685 167.026C78.8004 165.157 79.4537 163.792 80.5284 162.932C81.5906 162.071 82.9746 161.746 84.6805 161.957Z" fill="black" />
	<path d="M72.2871 173.267L70.9427 172.866L74.3922 161.311L67.2707 159.185L67.6178 158.023L76.0836 160.55L72.2871 173.267Z" fill="black" />
	<path d="M58.7491 167.161L62.9783 169.127L62.4667 170.228L52.7362 165.703L53.2478 164.603L57.477 166.569L62.5611 155.636L63.8333 156.227L58.7491 167.161Z" fill="black" />
	<path d="M48.3888 148.564L49.0631 147.555L56.8654 152.77L49.49 163.804L41.9242 158.747L42.5985 157.738L48.9979 162.015L51.6214 158.091L45.9156 154.277L46.5794 153.284L52.2852 157.098L55.0247 153L48.3888 148.564Z" fill="black" />
	<path d="M42.8272 141.77C43.7799 142.676 44.4406 143.705 44.8095 144.858C45.1692 146.002 45.2161 147.155 44.9504 148.315C44.6668 149.475 44.0851 150.518 43.2055 151.443C42.3259 152.368 41.3181 152.997 40.1821 153.33C39.0283 153.663 37.8663 153.674 36.6963 153.364C35.5262 153.054 34.4648 152.446 33.5121 151.54C32.7976 150.861 32.2513 150.115 31.8732 149.302C31.4951 148.489 31.313 147.653 31.3271 146.794L32.5869 146.763C32.6152 148.237 33.2018 149.519 34.3469 150.607C35.1072 151.33 35.9642 151.814 36.9181 152.058C37.8719 152.302 38.8149 152.291 39.7469 152.027C40.6698 151.753 41.4883 151.241 42.2025 150.489C42.9166 149.738 43.387 148.895 43.6138 147.959C43.8313 147.015 43.7941 146.073 43.5022 145.133C43.2102 144.192 42.6841 143.361 41.9238 142.638C40.7696 141.541 39.4557 141.024 37.9822 141.088L37.9504 139.828C38.8072 139.771 39.6601 139.91 40.509 140.246C41.34 140.583 42.1127 141.091 42.8272 141.77Z" fill="black" />
	<path d="M20.4352 135.428L31.2303 127.708L32.0354 128.834L27.0542 132.396L31.8847 139.15L36.8659 135.588L37.682 136.729L26.8869 144.449L26.0708 143.308L30.8823 139.867L26.0518 133.113L21.2403 136.554L20.4352 135.428Z" fill="black" />
	<circle cx="170" cy="112.848" r="2" fill="black" />
	<circle cx="19" cy="112.848" r="2" fill="black" />
</svg>
